<svg version="1" xmlns="http://www.w3.org/2000/svg" width="3014.667" height="3014.667" viewBox="0 0 2261.000000 2261.000000"><path d="M1113.5 147.1c-6 .4-13.5 1-16.5 1.3-3 .3-8.2.8-11.5 1.1-3.3.3-7.1.8-8.5 1-1.4.2-4.5.7-7 1-2.5.3-5.6.8-7 1-1.4.3-3.8.7-5.5.9-3.7.6-19.1 3.3-22.5 4-7.4 1.5-25.5 5.8-26 6.1-.4.2-2.2.7-4.1 1-1.9.3-7.2 1.7-11.9 3.1-4.7 1.4-9.4 2.7-10.4 2.9-4.5 1-31.2 10.2-45.1 15.6-14.7 5.7-17 6.6-33 13.6-15.6 6.9-53.2 26-59.5 30.3-1.4.9-3 1.9-3.5 2.1-.6.2-5.1 2.8-10 5.7-50.7 29.9-98.7 69.7-138 114.7-12.4 14.1-15.5 18-36.3 45.5-2 2.7-16.9 24.4-18.9 27.6-21.6 34.6-35.5 60.8-48.7 91.9-3.7 8.8-7.2 16.7-7.6 17.6-3.5 6.9-4 18-1.1 23.7 8.6 16.4 30 18.6 40.6 4.1 1.3-1.6 5.8-11.2 10.1-21.2 11.4-26.7 25.8-55.2 37.5-74.2 1-1.7 2.6-4.4 3.5-6 4.3-7.8 30.7-45.8 37.5-54 30.3-36.5 56.4-62.8 82.9-84 4.1-3.3 7.7-6.2 8-6.6 1.6-1.7 22.4-16.9 34-24.6 19-12.7 24.5-16 46.5-28.2 43.3-24 98.1-44.6 149.3-56.1 13.6-3.1 15.5-3.4 23.2-4.5 2.4-.4 4.7-.8 5-1 .3-.2 2.9-.6 5.9-1 3-.4 6.3-.9 7.5-1.1 1.2-.2 5.7-.8 10.1-1.4 7.4-.9 11.4-1.3 23.5-2.5 27.6-2.6 80.4-2.2 104.5.9 2.2.3 6.3.8 9 1.1 2.8.3 6.4.8 8 1 1.7.3 4.8.7 7 1.1 19.1 2.8 44.2 8 64 13.4 4.4 1.2 8.9 2.3 10 2.6 1.1.2 12.7 4 25.8 8.5 13.1 4.4 25.8 8.3 28.2 8.6 9.5 1.1 20.2-4.9 23.6-13.2 5.5-13.5 1-25.4-11.9-31.9-13.6-6.8-75.6-24.8-103.7-30.1-1.6-.3-3.9-.8-5-1-5.6-1.1-23.9-4.3-29.5-5-2.5-.3-5.6-.8-7-1-1.4-.2-4.7-.6-7.5-.9-2.7-.4-6.6-.8-8.5-1.1-4.3-.5-15.4-1.5-24-2.2-11.3-.8-64-1-75.5-.2z"/><path d="M1124.8 311.5c-.2.2-3.9.6-8.3.9-14.8 1.2-25.3 2.5-47.5 6.2-9.6 1.5-37.6 8.9-51.2 13.4-34.6 11.6-79.3 33.6-113.3 55.8-73.4 48-130.8 117.3-165.1 199.7-5 12.2-5.8 14.8-5.8 20.5.1 14.1 9.4 23.5 23.4 23.4 5.3 0 7.5-.5 11.9-2.9 6.1-3.4 8.1-6.1 13.5-19 44.5-105.2 117.7-177.7 223.2-220.9 21.8-8.9 59.2-19.9 74.7-22 2.6-.4 7-1.1 9.7-1.6 2.7-.5 7.1-1.2 9.7-1.5 2.6-.4 5.9-.8 7.3-1.1 15.5-2.6 69.3-2.6 87.5.1 1.7.2 5.3.6 8 .9 6.6.7 27.4 4.3 35.3 6.1 3.4.8 7.5 1.7 9.1 2 4.9.9 26.1 7.2 39.6 11.9 7.2 2.4 14.5 4.7 16.3 5 8 1.1 18-4 23-11.9 3.5-5.4 4-15.1 1.1-21.4-4.5-10.1-12-13.9-48-24.6-12.7-3.7-34.9-9.2-44.4-10.9-11.5-2.1-20.7-3.6-25-4.1-2.7-.3-6-.8-7.2-1-1.2-.2-5.7-.6-10-1s-9.4-.9-11.3-1.2c-3.9-.5-55.7-1.2-56.2-.8z"/><path d="M1139.8 473.5c-.2.1-4.6.5-9.8.9-11 .7-12.7 1-27.5 3.7-67.8 12.5-126.5 46.5-170.6 98.9-14.8 17.6-29.9 42.2-40.9 66.5-9.4 20.8-9.5 29.5-.3 39 6.4 6.6 15.5 8.7 24.2 5.8 8.6-2.9 10.2-4.9 20.5-25.5 21.3-43 44.2-72 75.1-94.8 35.6-26.2 74.9-40.5 126.5-45.8 17.1-1.8 41.8-.5 61.5 3.3 7.4 1.5 20.1 5 32.5 9.2 11.2 3.8 14.4 4.4 18.6 4 20.1-2.1 28.8-26.4 14.4-40.4-1.7-1.7-5-4-7.3-5.1-4.9-2.4-25.6-9.1-33.2-10.8-.5-.1-3.9-.9-7.5-1.8-7.5-1.8-21.1-4.2-29-5.1-3-.3-7.3-.8-9.5-1.1-4-.6-37.2-1.4-37.7-.9zM1120.5 629.4c-9.3 1.9-16.3 4.4-25.2 9.1-23 12.1-39.7 33.6-46 59.2-1.8 7.4-2.4 28.3-1 36.5 1 6.5 5.3 19.3 8.5 25.3 6 11.4 17.2 24.7 27.2 32 9 6.7 24.4 13.7 32.7 15 2.2.3 5.4.9 7 1.4 3.4 1 24.6.7 30.9-.4l4.1-.7 2.2 6.3c6.4 17.8 13.4 36.8 14.6 39.9.8 1.9 7.1 19.2 14.1 38.5 7 19.2 14.5 39.9 16.7 46 2.2 6 4.8 13.2 5.7 16 2.5 7.3 12.9 35.4 14.5 39.5 1.9 4.8 42.5 116.3 42.8 117.5.3 1.2 7.5 21.2 8.7 24 .4 1.1 1.3 3.6 2 5.5s1.6 4.4 2 5.5c.5 1.1 9 24.3 18.9 51.5 9.8 27.2 18.2 50.2 18.5 51 .5 1.1-1.4 2.6-6.6 5.4-6.9 3.7-18.7 11.2-19.8 12.6-.3.3-1.6 1.4-2.9 2.3-4.1 2.8-15 13.8-21.1 21.2-6.3 7.8-13.7 19.6-17.7 28.3-3.2 7-8.4 21.2-7.7 21.2.3 0 0 .8-.5 1.7-.5 1-1.2 3.4-1.5 5.3-.3 1.9-.8 4.6-1.1 6-2.7 12.7-2.5 35.9.4 50 1.1 5.8 2.4 11.5 2.7 12.6.4 1.5 0 2.3-1.3 2.7-1.9.6-1.9.6-25.8 9.7-8.8 3.4-19.4 7.4-23.5 8.9-4.1 1.5-27.3 10.3-51.5 19.6-24.2 9.2-46.7 17.8-50 19-3.3 1.2-16.3 6.2-29 11-12.6 4.8-26.4 10-30.5 11.6-14.6 5.4-66.5 25.1-68.5 26-1.6.7-72.9 27.8-96 36.5-3.3 1.2-17.5 6.6-31.5 11.9-14 5.3-28.2 10.7-31.5 12-3.3 1.2-21.1 8-39.5 15s-36.2 13.8-39.5 15c-3.3 1.2-16.3 6.2-29 11-12.6 4.8-25.7 9.7-29 11-17.3 6.5-78.7 29.8-82.9 31.5-2.7 1.1-5.4 2-6.1 2-.6 0-1.9-2.5-2.9-5.5-2.2-7.1-2.9-5.7 18-35.2 24.7-34.9 26.4-37.4 27.9-42.7 4-13.3.9-19.5-20.4-41.3-39-40.1-43-43.9-48.6-46.7-7.9-3.8-17.3-3.7-25.5.4-1.9 1-14.7 10-28.5 20-13.7 10.1-27.1 19.8-29.6 21.7-4.8 3.4-7.6 4-10.7 2.3-2.9-1.7-25.6-11-26.8-11-3 0-6.1-4.8-7.2-11.1-1.6-9.2-4.1-25.6-4.7-31.4-.4-2.8-.8-5.7-1-6.5-.2-.8-.7-3.5-1-6-.3-2.5-.8-5.6-1-7-.2-1.4-.6-4.5-1-7-2.1-16.8-6.3-23.6-18.8-30.8-3.7-2.1-4.9-2.2-49.8-2.7l-46-.6-6.2 3.5c-3.4 1.9-7 4.4-7.9 5.5-1.8 2.2-4.9 7.7-4.7 8.6 0 .3-.2 1.8-.5 3.3-.3 1.5-.8 4.3-1 6.2-.3 1.9-2 12-4 22.5-1.9 10.4-3.7 20.6-4 22.5-.3 1.9-.8 4.6-1.1 6-.3 1.4-1 5.6-1.6 9.5-1.4 9-2.7 10.9-9.1 13.3-11.7 4.4-24.4 9.4-26.6 10.5-1.6.8-3.1.8-5 .1-1.5-.6-14.2-9.6-28.2-20-36.2-26.9-35.8-26.7-41.3-28.5-6.1-2.1-13.2-1.6-19 1.1-4.3 2.1-14.8 11.8-48.8 45.5-17.6 17.4-22.5 23.3-23.6 28.5-2.4 10.8 0 16.7 15.7 39 25.6 36.2 31 44.2 31 46.2 0 1.3-1.5 4.8-3.3 7.8-4.5 7.6-6.5 12.4-9.1 21.6-2.4 8.9-1.4 8.2-16.7 10.4-4.1.6-8.6 1.3-9.9 1.5-1.3.3-4.2.7-6.5 1.1-2.2.3-11 1.6-19.5 2.9-18.3 2.7-26.5 3.8-26.5 3.5 0-.7-9.6 3.7-12.3 5.7-3.8 2.8-7.9 8.9-8.8 13-.7 3.3-1.2 24.2-1.6 63.3l-.3 28.5 2.8 5.7c5.4 10.9 14.1 16 32.7 18.9 4.1.6 8.4 1.3 9.5 1.5 2 .4 10.6 1.9 15.5 2.8 1.4.2 5.2.9 8.5 1.5s7.8 1.3 10 1.7c2.2.3 4.3.8 4.6.9.3.2 2.8.7 5.5 1 7.6 1 8.8 2.3 11.4 11.7 1.3 4.5 4.3 12.3 6.7 17.2 2.3 4.9 4.3 9.7 4.3 10.7 0 .9-10.3 15.6-22.9 32.6-12.5 16.9-23.6 32.3-24.5 34.2-2.7 5.2-3.1 13-1.1 19.6 2 6.1 3.1 7.5 27 32 31.8 32.7 37 37.7 42.2 40.2 6.2 2.9 14.3 3 20.8.3 2.2-1 13.5-8 25-15.6 11.6-7.6 21.7-14.3 22.7-14.9.9-.5 5.4-3.5 10.1-6.7 4.7-3.1 9.4-6.1 10.6-6.8 1.9-.9 4.8 0 19.7 6.1 11.2 4.6 18.1 8.1 18.9 9.3.7 1.2 1.5 4.1 1.8 6.6.4 2.5 1.3 9 2.2 14.5.9 5.5 1.8 11.6 2.1 13.5.2 1.9.6 4.6.9 6 .3 1.4.7 3.8.9 5.5 1.2 8.3 2.9 19.2 3.1 21 2.3 18.4 6.8 25.6 18.5 29.5 3.9 1.3 10.2 1.7 33.2 1.9 15.5.2 34.8.5 42.8.6 16.4.3 22-.9 29-6.5 6.8-5.4 10.2-13.4 12.4-29.3.3-1.8 2.3-13.1 4.5-25.2s4.3-23.6 4.6-25.5c1.1-6.3 2.5-10.7 3.8-11.7.6-.5 5.3-2.4 10.2-4.3 5-1.8 12.1-4.5 15.9-6.1 3.7-1.6 8-2.9 9.5-2.9 1.8 0 10.6 5.6 27.6 17.6 13.8 9.7 27.7 19.5 31 21.8 19.4 13.5 29.9 12.3 47.6-5.3 2.5-2.5 15-14.7 27.8-27.1 19.6-19 23.7-23.5 26.3-28.7 2.7-5.6 3-6.9 2.6-13.5-.3-6.3-2.6-13.9-4.7-15.8-.4-.3-1-1.3-1.6-2.2-1-1.7-20-28.1-22.2-30.8-.7-.8-3-4-5.2-7s-4.4-6-4.8-6.5c-5.2-6.1-9.5-13.6-9-15.7 1.3-5.8 13.1-32.5 15.1-34.4 1.7-1.5 4.9-2.4 11.2-3.3 4.9-.7 9.8-1.5 10.9-1.7 1.1-.2 4.2-.6 6.9-.9 2.7-.4 5.8-.9 7-1.1 1.1-.2 3.8-.6 6.1-.9 2.2-.4 5.1-.8 6.5-1 1.4-.2 8.5-1.3 15.8-2.4 15.4-2.4 20.3-4.3 25.6-9.7 8.9-9.3 9.1-10.9 9.1-69.1 0-38.5 0-38.8-2.2-42.4-2.9-4.6-7-8.7-10.5-10.5-2.6-1.3-13.4-3.7-21.8-4.8-1.9-.3-9.6-1.6-17-3-15.4-2.8-31.8-5.8-34-6.1-6.6-.8-10.1-1.9-11.9-3.6-3.5-3.2-2.7-5.3 2.7-7.1 2.6-.9 17.3-6.4 32.7-12.3 15.4-5.8 31.4-11.9 35.5-13.4 9.3-3.5 66.8-25.4 96.5-36.8 12.1-4.6 22.5-8.6 23-8.7.6-.2 2.4-.8 4-1.5 1.7-.6 4.4-1.6 6-2.2 1.7-.6 4.4-1.7 6-2.4 1.7-.6 4.4-1.7 6-2.3 9-3.3 112.4-42.4 114.4-43.3 1.3-.5 9.6-3.7 18.5-7 8.8-3.3 17-6.4 18.1-6.9 1.1-.5 18.2-7 38-14.5 19.8-7.4 36.9-13.9 38-14.4 1.1-.5 5.2-2 9-3.5 3.9-1.4 12.4-4.6 19-7.2 6.6-2.5 14.3-5.4 17-6.4 2.8-1 15.6-5.9 28.5-10.8s51.4-19.5 85.5-32.5c34.1-12.9 62.7-23.8 63.5-24.1 1.2-.5 2.5 1 4.9 5.6 8.5 15.9 23 33 37 43.5 4.2 3.2 7.8 6.1 8.1 6.4.3.3 3.7 2.3 7.5 4.5 14.8 8.5 32.4 14.7 48.2 17 2.6.3 5.7.8 6.8 1 2.8.6 26.5.5 29.1 0 1.2-.2 4.5-.7 7.5-1.1 15-1.8 40.6-11.5 52.1-19.6 1.4-1.1 3.1-1.9 3.6-1.9.6 0 1.2-.3 1.4-.8.2-.4 2.8-2.6 5.8-4.9 7.7-5.9 15.7-13.6 22.5-21.8 3.2-3.9 6.1-7.4 6.5-7.8.5-.6 21.4 11.5 64.2 37.2 1.4.9 5.6 3.4 9.4 5.6 3.7 2.2 7.9 4.7 9.3 5.5 1.4.9 3.7 2.3 5.1 3.2 1.4.8 29.5 17.6 62.5 37.3 33 19.6 61.2 36.5 62.7 37.6 1.5 1 2.9 1.9 3.2 1.9.3 0 3.3 1.7 6.8 3.9 3.5 2.1 24.8 14.9 47.3 28.3 40.4 24.1 116.5 69.6 121.7 72.7 2.9 1.8 12.8 7.6 16.9 10.1 1.5.8 6.7 3.9 11.7 6.9l9 5.4-4.7 9.6c-7.7 15.3-14.8 37.2-16.7 50.9-.3 2.6-.9 5.6-1.1 6.7-1 3.8-1.1 39-.2 45.5 4.8 33 15.2 59.9 32.2 83.5 17.9 24.7 39.8 43.6 66.1 57 13.3 6.7 31.2 13.3 41.3 15.1 1.5.3 4.7.9 7.1 1.5 11.7 2.6 40.9 4 51.2 2.5 1.9-.3 5.8-.8 8.5-1.1 2.8-.3 9.7-1.7 15.5-3 46.8-10.6 89.3-41.2 114.3-82.5 8.3-13.7 17.9-35.9 20.3-47 .4-1.9.9-4 1-4.5 4-16.9 4.8-24.1 4.8-42.5.1-22.1-2.3-38.5-8.4-57-3.2-9.9-3.9-11.6-9.8-24-18.2-38.4-54.5-72.2-94.8-88.3-11.1-4.5-21.9-7.8-30.4-9.4-1.4-.2-4.5-.9-7-1.4-13.1-3-46.7-3.1-60.1-.3-1.3.2-4.2.7-6.4 1-15.9 2.4-46.8 14.7-61.2 24.5-2.4 1.6-4.6 2.9-4.9 2.9-.4 0-9.8 7.1-15.7 11.9-4.7 3.8-18.8 18.1-23.7 24.1-2.9 3.6-5.8 6.4-6.4 6.2-.5-.2-9-5.1-18.8-11-9.9-5.9-19.4-11.5-21.1-12.6-1.8-1-30-17.9-62.7-37.4-32.7-19.6-60.4-36.2-61.5-36.8-2-1.1-55.7-33.2-97.5-58.2-12.4-7.5-23.4-14-24.5-14.6-1.1-.6-3.1-1.9-4.5-2.8-2.4-1.5-65.7-39.4-72.3-43.2-1.8-1-17.5-10.4-34.9-20.8l-31.8-19 1.6-3.6c5.7-13.5 9.7-27.3 11.1-38.4 1.4-11.4.8-36.6-1.1-45.8-7.3-35.6-27.1-66.1-56.2-86.9-16.4-11.6-39.2-21.1-57-23.6-2.2-.3-5.7-.8-7.9-1.1-12.4-1.8-34.6-.3-47.6 3-5 1.3-5.1 1.3-6.1-1.3-2-5-15.2-41.3-48.4-132.6-18.4-50.6-33.8-92.9-34.3-94-.5-1.1-2.3-5.8-3.9-10.5-8.1-22.8-41.5-114.7-42.3-116.5-2.1-4.7-30.9-84.8-30.9-85.9 0-.7 3.5-3.6 7.9-6.4 18.6-12.1 32-30.6 38.2-52.7 1.8-6.4 2.3-10.7 2.3-21.5.1-17.5-1.4-25.7-7-37.8-1.3-2.9-2.4-5.5-2.4-5.8 0-1.9-10.8-16.2-16.6-22-11.5-11.4-23.2-18.3-38.9-23-7.5-2.2-11.3-2.7-22.5-2.9-7.8-.2-16.1.2-19.5.9zm-761 955c8.8.7 10.2.9 17.5 2.1 37.1 6.4 75.8 27.3 102 55.1 10 10.6 11.9 13.1 19.8 24.9 14 20.9 24.9 47.5 28.7 70.5.3 1.9.8 4.6 1 6 2.3 14.2 2.3 42.9 0 55-.3 1.3-.7 4.2-1.1 6.4-.3 2.2-1.7 8.3-3 13.5-15.7 61-61.2 110.1-120.3 130-10 3.3-15.7 4.8-30.1 7.6-6.8 1.4-17 2-31 2-14.4-.1-19.1-.4-31-2.1-5.3-.7-26.6-6-29.5-7.3-1.1-.5-4.7-1.9-8-3.2-9.4-3.5-26.7-12.5-35.7-18.6-34.9-23.5-60.3-57.2-73.5-97.2-2.8-8.6-2.5-7.4-5.2-20.1-2.8-13.3-3.6-21.2-3.5-38.5 0-13.7.5-22.3 1.9-29.8.3-1.5.7-3.7.9-5 6.4-36.3 26.9-74.3 53.8-99.9 27.1-25.7 64.6-44.6 97.7-49.4 2-.3 4.2-.7 4.8-.9.7-.2 6.1-.7 12-1.1 6-.3 10.9-.7 11-.8.4-.4 10.9.1 20.8.8z"/></svg>