<?xml version="1.0" encoding="utf-8"?>
<!-- Generator: Adobe Illustrator 23.1.1, SVG Export Plug-In . SVG Version: 6.00 Build 0)  -->
<svg version="1.1" id="Layer_1" xmlns="http://www.w3.org/2000/svg" xmlns:xlink="http://www.w3.org/1999/xlink" x="0px" y="0px"
	 viewBox="0 0 5669.29 5669.29" style="enable-background:new 0 0 5669.29 5669.29;" xml:space="preserve">
<style type="text/css">
	.st0{display:none;}
	.st1{display:inline;fill:none;stroke:#005B9D;stroke-width:5;stroke-miterlimit:10;}
	.st2{display:inline;}
	.st3{fill:#005B9D;stroke:#005B9D;stroke-width:10;stroke-miterlimit:10;}
	.st4{fill:#005B9D;}
	.st5{display:inline;fill:#005B9D;}
	.st6{fill:none;stroke:#005B9D;stroke-width:5;stroke-miterlimit:10;}
	.st7{fill:#FFFFFF;}
	.st8{fill:#30B8A3;}
	.st9{fill:none;stroke:#30B8A3;stroke-width:5;stroke-miterlimit:10;}
</style>
<g class="st0">
	<line class="st1" x1="2533" y1="2973.8" x2="2774.15" y2="3213.96"/>
	<line class="st1" x1="2533" y1="2973.8" x2="2774.15" y2="2749.45"/>
	<g class="st2">
		<path class="st3" d="M3226.39,2090.93c9.67,58.71-29.72,112.87-87.66,122.49c-58.18,9.66-112.62-29.46-122.35-87.55
			c-9.71-57.99,29.61-112.97,87.65-122.55C3161.98,1993.74,3216.85,2033.03,3226.39,2090.93z"/>
		<path class="st4" d="M3320.79,2096.35c-12.62,2.1-25.24,4.15-37.84,6.35c-2.03,0.35-2.72-0.02-3.05-2.14
			c-1.9-12.1-3.93-24.19-6.03-36.26c-0.34-1.94,0.07-2.57,2.05-2.89c25.56-4.18,51.11-8.43,76.64-12.77c2.2-0.37,2.44,0.5,2.72,2.21
			c1.94,11.99,3.9,23.97,6.01,35.93c0.39,2.23-0.1,2.91-2.33,3.26C3346.23,2092.06,3333.51,2094.23,3320.79,2096.35z"/>
		<path class="st4" d="M3224.96,1890.59c-0.28,0.81-0.47,1.42-0.69,2.02c-9.08,24.32-18.18,48.63-27.18,72.98
			c-0.74,2-1.56,1.92-3.23,1.28c-11.41-4.39-22.83-8.73-34.3-12.95c-1.86-0.68-2.15-1.29-1.45-3.15
			c9.12-24.29,18.18-48.6,27.14-72.95c0.77-2.08,1.55-2.2,3.39-1.49c11.3,4.39,22.64,8.68,33.96,13.02
			C3223.43,1889.66,3224.39,1889.82,3224.96,1890.59z"/>
		<path class="st4" d="M3036.93,1972.49c0.4,1.04-0.57,1.31-1.06,1.72c-9.65,8.02-19.38,15.94-28.96,24.03
			c-2.04,1.72-2.51,0.07-3.39-0.99c-13.55-16.49-27.1-33-40.64-49.5c-2.92-3.56-5.79-7.18-8.8-10.66c-1.05-1.21-0.89-1.8,0.28-2.76
			c9.69-7.98,19.38-15.95,28.92-24.11c1.96-1.68,2.46-0.31,3.36,0.78c10.94,13.36,21.87,26.72,32.81,40.08
			c5.43,6.63,10.88,13.26,16.31,19.89C3036.17,1971.47,3036.54,1971.99,3036.93,1972.49z"/>
		<path class="st4" d="M3055.25,2340.9c-0.58-0.2-1.19-0.39-1.79-0.62c-11.32-4.28-22.63-8.62-33.98-12.82
			c-1.97-0.73-2.65-1.31-1.8-3.55c9.13-24.27,18.17-48.57,27.15-72.9c0.69-1.88,1.35-2.04,3.14-1.35c11.5,4.45,23.03,8.8,34.6,13.06
			c1.7,0.63,1.97,1.12,1.32,2.86c-9.15,24.39-18.21,48.81-27.3,73.21C3056.29,2339.56,3056.29,2340.55,3055.25,2340.9z"/>
		<path class="st4" d="M3205.18,2243.46c10.17-8.44,20.29-16.73,30.25-25.21c1.97-1.68,2.47-0.26,3.36,0.82
			c10.88,13.26,21.75,26.53,32.62,39.8c5.5,6.72,10.94,13.49,16.54,20.12c1.4,1.66,1.12,2.46-0.42,3.73
			c-9.45,7.75-18.82,15.59-28.22,23.4c-0.88,0.73-1.53,1.63-2.76,0.12C3239.48,2285.3,3222.35,2264.43,3205.18,2243.46z"/>
		<path class="st4" d="M2927.63,2161.33c-12.62,2.1-25.25,4.14-37.84,6.35c-2.26,0.4-2.91-0.18-3.25-2.37
			c-1.87-11.89-3.84-23.77-5.94-35.62c-0.4-2.29,0.24-2.88,2.39-3.23c25.35-4.15,50.7-8.36,76.02-12.66
			c2.19-0.37,2.67,0.28,2.99,2.25c1.91,11.99,3.89,23.98,5.99,35.94c0.37,2.08-0.11,2.71-2.18,3.04
			C2953.07,2157.05,2940.36,2159.22,2927.63,2161.33z"/>
	</g>
	<g class="st2">
		<path class="st4" d="M2439.57,1845.9c-64.9,30.24-113.19,79.7-141.04,148.71c-1.86,4.61-4.05,8.82-9.38,9.89
			c-4.52,0.91-8.48-0.39-11.56-4.02c-3.28-3.87-3.16-8.12-1.43-12.54c7.26-18.6,16.21-36.35,26.99-53.16
			c23.56-36.77,53.53-67.41,90.72-90.17c83.88-51.33,172.46-60.77,265.26-27.36c7.82,2.81,10.98,8.82,8.46,15.53
			c-2.5,6.66-8.83,9.09-16.6,6.17c-47.21-17.71-95.64-22.32-145.32-13.59C2483.62,1829.23,2462.48,1836.06,2439.57,1845.9z"/>
		<path class="st4" d="M2473.53,1893.56c46.23-19.67,101.01-21.6,156.47-1.45c3.39,1.23,6.35,2.86,8.07,6.24
			c2.22,4.37,1.8,9.31-1.47,12.88c-3.4,3.72-7.68,5.08-12.52,3.39c-7.52-2.62-15.02-5.31-22.77-7.19
			c-48-11.66-93.99-6.34-137.79,16.58c-42.25,22.11-72.02,55.59-90.08,99.62c-1.21,2.95-2.29,5.94-5.15,7.8
			c-4.51,2.94-9.78,2.87-13.8-0.25c-4.18-3.24-5.55-8.6-3.37-14.2c9.44-24.24,22.71-46.19,40.01-65.62
			C2412.01,1927.9,2436.89,1909.85,2473.53,1893.56z"/>
		<path class="st4" d="M2497.63,1968.67c34.38-14.8,69.21-15.96,104.51-3.33c3.96,1.42,7.11,3.61,8.5,7.7
			c1.5,4.45,0.72,8.59-2.66,11.89c-3.61,3.52-7.93,4.41-12.75,2.59c-14.46-5.45-29.43-8.52-44.85-7.53
			c-49.1,3.13-83.88,27.2-103.97,72.23c-1.3,2.92-2.4,5.88-5.37,7.62c-4.75,2.78-9.79,2.5-13.75-0.87s-5.23-8.13-3.16-13.4
			c10.63-27.12,27.95-48.92,52.14-65.2C2483.01,1975.82,2490.03,1971.75,2497.63,1968.67z"/>
	</g>
	<g class="st2">
		<path class="st4" d="M3619.27,1693.62c21.64,26.1,32.62,56.15,32.28,90.01c-0.32,31.8-10.45,60.31-30.39,85.24
			c-8.3,10.37-17.78,19.49-28.7,26.96c-23.9,16.36-50.33,24.83-79.42,24.73c-11.02-0.04-21.87-1.42-32.59-3.88
			c-6.91-1.59-9.63-7.56-6.02-13.04c1.93-2.93,5.14-3.89,9.47-2.99c4.17,0.87,8.34,1.79,12.55,2.38
			c28.05,3.89,54.38-1.16,78.74-15.66c31.82-18.95,51.17-46.87,58.1-83.11c5.39-28.15,1-55.2-12.81-80.28
			c-16.15-29.33-40.48-49.2-72.69-58.7c-31.77-9.37-62.74-6.34-91.83,9.25c-31.76,17.01-52.18,43.49-61.15,78.54
			c-2.86,11.18-3.96,22.57-3.39,34.11c0.17,3.58-0.23,7.06-3.54,9.14c-5.48,3.45-12.22-0.03-12.61-6.56
			c-1.14-19.42,1.82-38.23,8.62-56.45c6.19-16.56,15.17-31.52,27.21-44.36c26.23-27.96,58.52-43.34,97.05-44.8
			c31.43-1.19,60,7.52,85.66,25.71C3603.34,1676.63,3611.86,1684.53,3619.27,1693.62z"/>
		<path class="st4" d="M3587.22,1718.25c30.83,38.21,31.09,88.37,2.69,124.62c-3.91,4.99-8.67,9.35-13.29,13.72
			c-3.64,3.44-8.93,3.15-11.97-0.2c-3.11-3.42-2.63-8.84,1.31-12.17c14.18-11.98,23.13-27.09,26.91-45.22
			c3.99-19.14,1.52-37.5-7.74-54.73c-12.13-22.57-30.96-36.57-56-41.72c-19.67-4.04-38.47-1.03-55.93,9.06
			c-4.18,2.42-7.99,5.48-11.95,8.27c-3.79,2.68-8.19,2.45-11.4-0.65c-2.45-2.36-2.98-7.58-0.62-10.39c1.67-1.99,3.83-3.64,5.97-5.17
			c17.18-12.27,36.26-19.04,57.49-19c23.71,0.04,44.92,7.36,63.1,22.77C3580.33,1711.31,3584.47,1715.64,3587.22,1718.25z"/>
		<path class="st4" d="M3526.33,1785.76c-2.61,6.61-7.25,10.79-14.22,12.12c-7.68,1.46-15.51-2.36-19.41-9.38
			c-3.65-6.56-2.35-15.45,2.91-21.14c8.73-9.45,24.45-6.84,29.8,4.44c0.38,0.79,1.7,1.59,2.59,1.61c8.99,0.2,17.98,0.24,26.98,0.32
			c2,0.02,4-0.03,6,0.05c3.97,0.16,6.54,2.7,6.47,6.28c-0.07,3.4-2.78,6.07-6.49,6.07c-7.53-0.01-15.07-0.17-22.6-0.26
			C3534.35,1785.82,3530.35,1785.8,3526.33,1785.76z"/>
	</g>
	<path class="st1" d="M3513.29,1770.69l-391.92,341.28c33.05,205.38,66.1,410.76,99.16,616.14"/>
	<circle class="st5" cx="3224.96" cy="2728.12" r="88.37"/>
	<path class="st1" d="M2159.26,2587.09l504.57-191.63c185.57,110.89,371.13,221.77,556.7,332.66l123.9,227.43"/>
	<circle class="st5" cx="2662.96" cy="2395.45" r="67.4"/>
	<line class="st1" x1="2662.96" y1="2395.45" x2="2546.49" y2="2075.68"/>
	<circle class="st5" cx="2546.49" cy="2075.68" r="43.94"/>
	<circle class="st5" cx="2769.1" cy="2749.45" r="43.95"/>
	<line class="st1" x1="2159.26" y1="2587.09" x2="1922.98" y2="2020.36"/>
	<circle class="st5" cx="1922.98" cy="2020.36" r="71.35"/>
	<circle class="st5" cx="1565.7" cy="2587.09" r="91.15"/>
	<circle class="st5" cx="3509.07" cy="1779.89" r="33.3"/>
	<path class="st5" d="M2636.67,2809.58"/>
	<line class="st1" x1="2155.17" y1="2589.08" x2="1565.7" y2="2587.09"/>
	<g class="st2">
		<line class="st6" x1="2141.18" y1="2589.03" x2="2544.76" y2="2984.39"/>
		<g>
			
				<ellipse transform="matrix(0.0954 -0.9954 0.9954 0.0954 -669.0969 5211.5312)" class="st7" cx="2532.9" cy="2973.91" rx="47.97" ry="48.74"/>
			<g>
				<path class="st4" d="M2570.82,3004.74c14.19-19.85,14.52-39.76,0.75-60.58c13.22-6.69,26.17-13.46,39.33-19.8
					c5.63-2.71,11.66-4.67,17.6-6.72c8.98-3.1,17.03-0.77,24.07,4.98c7.02,5.73,11.05,13.15,11.48,22.29
					c0.35,7.46,0.75,14.92,1.21,22.37c1.04,16.64-5.59,29.82-18.27,40.5c-13.79,11.61-29.33,15.17-46.85,10.65
					C2589.48,3015.7,2579.91,3010.75,2570.82,3004.74z"/>
				<path class="st4" d="M2503.27,2935.63c-1.28-2.09-2.43-3.89-3.5-5.73c-9.03-15.49-17.29-31.3-23.61-48.12
					c-7.52-20.01,10.9-36.07,25.42-36.95c8.14-0.49,16.29-0.83,24.43-1.33c17.04-1.06,30.49,5.6,41.36,18.22
					c11.65,13.52,15.19,28.75,10.65,45.88c-2.79,10.52-7.81,19.95-14.04,29.11c-9.03-6.91-19.03-10.67-30.31-10.83
					C2522.49,2925.71,2512.47,2929.09,2503.27,2935.63z"/>
				<path class="st4" d="M2495.26,2943.22c-14.29,21.33-14.54,34.18-1.47,59.88c-0.11,0.19-0.18,0.44-0.35,0.54
					c-17.61,10.44-35.63,20.04-55.16,26.64c-17.29,5.84-32.09-7.56-35.27-20.71c-1.29-5.33-1.41-10.97-1.76-16.49
					c-0.6-9.48-1.32-18.97,1.01-28.36c4.18-16.85,24.47-34.32,41.95-36.54c15.09-1.92,28.55,2.5,41.48,9.42
					C2488.89,2939.32,2491.97,2941.28,2495.26,2943.22z"/>
				<path class="st4" d="M2501.63,3011.19c20.36,14.05,40.46,14.38,60.77,1.41c0.23,0.13,0.5,0.19,0.6,0.35
					c10.28,16.74,19.86,33.85,26.33,52.42c5.75,16.48-2.98,32.44-20.24,36.67c-6.05,1.48-12.5,1.51-18.79,1.89
					c-8.93,0.54-17.87,1.03-26.72-1.1c-17.26-4.17-35.02-24.26-37.18-41.62c-1.71-13.74,2.02-26.18,8.28-38.13
					C2496.79,3019.07,2499.25,3015.26,2501.63,3011.19z"/>
				<path class="st4" d="M2565.95,2973.02c0.56,17.72-13.86,32.88-31.86,33.49c-18.09,0.62-33.64-13.82-34.09-31.65
					c-0.45-17.74,14.05-32.82,32.05-33.32C2550.05,2941.04,2565.39,2955.28,2565.95,2973.02z"/>
			</g>
		</g>
	</g>
	<circle class="st5" cx="3344.43" cy="2955.55" r="43.95"/>
	<circle class="st5" cx="2774.15" cy="3213.96" r="27.38"/>
	<line class="st1" x1="2155.17" y1="2589.08" x2="1689.6" y2="3044.65"/>
	<circle class="st5" cx="1689.6" cy="3044.65" r="27.38"/>
	<g class="st2">
		<g>
			<path class="st4" d="M2195.83,2321.06c2.75,1.59,5.68,2.95,8.22,4.82c6.05,4.45,8.28,10.9,9.29,18.1
				c2.4,17.08,5.08,34.12,7.55,51.19c0.4,2.76,1.55,4.26,4.29,5.3c7.76,2.95,15.39,6.24,23,9.58c2.17,0.95,3.66,0.78,5.6-0.65
				c14.13-10.45,28.38-20.74,42.58-31.12c11.57-8.45,23.33-7.55,33.22,2.62c13.21,13.58,26.43,27.15,39.62,40.74
				c8.97,9.24,9.78,19.3,2.44,29.8c-10.5,15-20.91,30.07-31.61,44.92c-2.05,2.84-2.07,5.09-0.87,8.04
				c2.96,7.28,5.88,14.59,8.46,22.01c0.9,2.59,2.22,3.8,4.8,4.25c16.84,2.97,33.66,6.03,50.49,9.03c2.78,0.5,5.62,0.69,8.37,1.3
				c8.09,1.77,14.87,9.99,14.81,18.52c-0.14,21.48-0.43,42.96-0.89,64.44c-0.2,9.48-8.82,18.94-18.32,20.43
				c-18.21,2.85-36.44,5.6-54.69,8.23c-3.37,0.49-5.45,1.6-6.72,5.06c-2.76,7.51-5.95,14.88-9.16,22.21
				c-1.02,2.32-0.82,3.91,0.71,5.98c10.46,14.13,20.76,28.38,31.12,42.58c8.25,11.31,7.31,23.22-2.63,32.9
				c-13.68,13.32-27.36,26.64-41.06,39.94c-9.02,8.75-19.23,9.56-29.46,2.39c-14.99-10.51-30.05-20.94-44.92-31.62
				c-2.91-2.09-5.25-2.3-8.44-0.94c-7.1,3.01-14.27,5.88-21.58,8.34c-3.03,1.02-4.1,2.79-4.6,5.55c-3.24,18.15-6.51,36.29-9.8,54.43
				c-1.94,10.71-11.56,18.69-22.47,18.57c-20.43-0.24-40.87-0.53-61.3-0.85c-11.22-0.18-18.66-7.62-20.13-18.6
				c-2.56-19-5.76-37.92-8.6-56.88c-0.28-1.86-1.02-2.82-2.71-3.51c-8.24-3.35-16.48-6.72-24.64-10.28
				c-2.33-1.02-3.85-0.13-5.63,1.05c-15.38,10.2-30.8,20.35-46.2,30.52c-11,7.26-20.93,6.25-30.07-3.14
				c-13.53-13.89-27.05-27.79-40.56-41.7c-8.34-8.59-9.07-19-1.97-28.63c11.05-14.98,22.09-29.97,33.28-44.85
				c1.67-2.22,1.9-3.81,0.49-6.23c-4.21-7.23-7.3-14.98-8.99-23.16c-0.61-2.94-1.94-3.87-4.5-4.32c-16.84-2.96-33.63-6.22-50.51-8.9
				c-11.19-1.78-19.06-6.99-22.32-18.22c-0.52-1.77-0.52-3.53-0.5-5.31c0.27-20.44,0.53-40.87,0.85-61.3
				c0.18-11.16,7.59-18.54,18.7-20.04c18.71-2.51,37.34-5.61,56.01-8.42c2.3-0.35,3.36-1.15,3.87-3.78
				c1.58-8.08,4.85-15.62,9.38-22.47c1.99-3.01,1.63-4.96-0.37-7.76c-10.49-14.65-20.75-29.47-31.06-44.25
				c-6.99-10.01-6.4-20.49,2.25-29.1c14.91-14.84,30.03-29.46,45.21-44.01c7.15-6.85,18.1-7.3,26.26-1.3
				c15.12,11.11,30.24,22.23,45.15,33.61c2.83,2.16,5.04,2.12,7.99,0.93c7.28-2.96,14.59-5.89,22.01-8.46
				c2.61-0.91,3.78-2.25,4.23-4.83c2.97-16.84,5.94-33.68,9.09-50.48c0.87-4.62,0.75-9.46,3.41-13.73
				c3.09-4.97,8.03-7.16,12.93-9.52C2148.1,2320.39,2171.97,2320.73,2195.83,2321.06z M2010.27,2586.97
				c-1.19,81.66,63.14,147.86,144.83,149.05c81.64,1.19,147.87-63.18,149.04-144.85c1.17-81.67-63.16-147.87-144.84-149.04
				C2077.62,2440.96,2011.46,2505.26,2010.27,2586.97z"/>
		</g>
		<circle class="st7" cx="2155.17" cy="2589.08" r="148.98"/>
	</g>
</g>
<g class="st0">
	<g class="st2">
		<g>
			<path class="st4" d="M2120.92,2654.4c-5.27,15.81-21.08,26.35-36.89,26.35c-15.81,0-31.62-10.54-36.89-26.35l-65.87-226.59
				l-65.87,226.59c-5.27,15.81-21.08,26.35-36.89,26.35s-31.62-10.54-36.89-26.35c-13.17-36.89-113.3-339.89-113.3-358.34
				c0-21.08,18.44-39.52,39.52-39.52c15.81,0,31.62,10.54,36.89,26.35l73.78,231.86l65.87-231.86
				c5.27-15.81,18.44-26.35,34.25-26.35s31.62,10.54,34.25,26.35l65.87,231.86l73.77-231.86c5.27-15.81,21.08-26.35,36.89-26.35
				c21.08,0,39.52,18.44,39.52,39.52C2234.22,2314.51,2134.1,2617.51,2120.92,2654.4z"/>
			<path class="st4" d="M2482.58,2683.39c-118.57,0-210.79-94.85-210.79-213.42s92.22-213.42,210.79-213.42
				s210.79,94.85,210.79,213.42S2603.79,2683.39,2482.58,2683.39z M2482.58,2332.95c-76.41,0-129.11,60.6-129.11,137.01
				s52.7,137.01,129.11,137.01c76.41,0,129.11-60.6,129.11-137.01S2561.63,2332.95,2482.58,2332.95z"/>
			<path class="st4" d="M3633.71,2340.86H3444v89.58h108.03c21.08,0,39.52,18.44,39.52,39.52s-18.44,39.52-39.52,39.52H3444v131.74
				c0,23.71-18.44,39.52-42.16,39.52c-23.71,0-42.16-18.44-42.16-39.52v-337.26c0-23.71,18.44-39.52,42.16-39.52h229.23
				c21.08,0,39.52,18.44,39.52,39.52C3673.23,2325.05,3654.79,2340.86,3633.71,2340.86z"/>
		</g>
		<g>
			<path class="st4" d="M3042.98,2345.2h-113.3v297.73c0,23.71-18.44,42.16-42.16,42.16s-39.52-18.44-39.52-42.16V2345.2h-115.93
				c-21.08,0-39.52-18.44-39.52-39.52s15.81-39.52,39.52-39.52h308.27c21.08,0,39.52,18.44,39.52,39.52
				C3082.5,2329.39,3064.06,2345.2,3042.98,2345.2z"/>
			<path class="st4" d="M3215.06,2680.75c-23.71,0-42.16-18.44-42.16-42.16V2298.7c0-23.71,18.44-42.16,42.16-42.16
				s39.52,18.44,39.52,42.16v339.89C3254.59,2662.31,3236.14,2680.75,3215.06,2680.75z"/>
		</g>
		<g>
			<path class="st4" d="M3928.58,2538.43c0,37.86-0.29,75.72,0.13,113.58c0.18,16.47-16.82,26.91-33.45,28.42
				c-26.5,2.41-45.48-9.09-47.86-23.99c-0.9-5.68-1.84-11.31-1.84-17c-0.05-68.88-0.15-137.77,0.13-206.65
				c0.03-8.36,0.91-16.84,8.44-24.28c9.99-9.89,29.6-14.85,46.75-11.27c16.84,3.52,27.64,13.54,27.67,26.04
				C3928.63,2461.66,3928.58,2500.05,3928.58,2538.43z"/>
			<path class="st4" d="M3975.01,2390.19c19.61-26.5,38.99-53.18,58.95-79.43c8.68-11.42,0.45-29.11-12.1-40.32
				c-20-17.88-41.19-21.41-50.81-12.43c-3.67,3.42-7.34,6.79-10.29,10.78c-35.72,48.19-71.49,96.35-106.95,144.74
				c-4.31,5.88-7.99,12.34-5.81,22.15c2.89,13.02,16.05,28.47,31.65,36.44c15.32,7.82,29.18,7.41,35.68-1.33
				C3935.28,2443.96,3955.13,2417.06,3975.01,2390.19z"/>
			<path class="st4" d="M3799.95,2390.19c-19.61-26.5-38.99-53.18-58.95-79.43c-8.68-11.42-0.45-29.11,12.1-40.32
				c20-17.88,41.19-21.41,50.81-12.43c3.67,3.42,7.34,6.79,10.29,10.78c35.72,48.19,71.49,96.35,106.95,144.74
				c4.31,5.88,7.99,12.34,5.81,22.15c-2.89,13.02-16.05,28.47-31.65,36.44c-15.32,7.82-29.18,7.41-35.68-1.33
				C3839.68,2443.96,3819.84,2417.06,3799.95,2390.19z"/>
		</g>
	</g>
</g>
<g id="Layer_3">
	<g>
		<path class="st8" d="M2864.28,2109.74c-32.05,14.94-55.9,39.36-69.66,73.44c-0.92,2.28-2,4.35-4.63,4.88
			c-2.23,0.45-4.19-0.19-5.71-1.98c-1.62-1.91-1.56-4.01-0.71-6.19c3.59-9.19,8.01-17.95,13.33-26.26
			c11.64-18.16,26.44-33.29,44.81-44.54c41.43-25.35,85.17-30.01,131.01-13.51c3.86,1.39,5.42,4.36,4.18,7.67
			c-1.24,3.29-4.36,4.49-8.2,3.05c-23.32-8.75-47.24-11.02-71.77-6.71C2886.04,2101.51,2875.6,2104.88,2864.28,2109.74z"/>
		<path class="st8" d="M2881.06,2133.28c22.83-9.72,49.89-10.67,77.28-0.72c1.67,0.61,3.14,1.42,3.99,3.08
			c1.1,2.16,0.89,4.6-0.72,6.36c-1.68,1.84-3.79,2.51-6.18,1.68c-3.72-1.3-7.42-2.62-11.25-3.55c-23.71-5.76-46.42-3.13-68.05,8.19
			c-20.87,10.92-35.57,27.45-44.49,49.2c-0.6,1.46-1.13,2.93-2.55,3.85c-2.23,1.45-4.83,1.42-6.82-0.13
			c-2.06-1.6-2.74-4.25-1.66-7.01c4.66-11.97,11.21-22.81,19.76-32.41C2850.67,2150.24,2862.96,2141.32,2881.06,2133.28z"/>
		<path class="st8" d="M2892.96,2170.38c16.98-7.31,34.18-7.88,51.62-1.65c1.96,0.7,3.51,1.78,4.2,3.8c0.74,2.2,0.36,4.24-1.31,5.87
			c-1.78,1.74-3.92,2.18-6.3,1.28c-7.14-2.69-14.54-4.21-22.15-3.72c-24.25,1.55-41.43,13.44-51.35,35.67
			c-0.64,1.44-1.18,2.9-2.65,3.76c-2.35,1.38-4.83,1.23-6.79-0.43s-2.58-4.02-1.56-6.62c5.25-13.39,13.8-24.16,25.75-32.2
			C2885.74,2173.91,2889.2,2171.9,2892.96,2170.38z"/>
	</g>
	<circle class="st8" cx="3143.01" cy="2483.6" r="43.65"/>
	<path class="st9" d="M2771.43,2458.49l203.61-77.33c57.14,34.15,114.29,68.29,171.43,102.44"/>
	<circle class="st8" cx="2974.61" cy="2381.15" r="33.29"/>
	<line class="st9" x1="2974.61" y1="2381.15" x2="2917.09" y2="2223.23"/>
	<circle class="st8" cx="2917.09" cy="2223.23" r="21.7"/>
	<g>
		<g>
			<path class="st8" d="M2738.28,2393.81c0.84,0.49,1.74,0.9,2.52,1.47c1.85,1.36,2.53,3.34,2.84,5.54
				c0.73,5.22,1.55,10.44,2.31,15.66c0.12,0.84,0.47,1.3,1.31,1.62c2.37,0.9,4.71,1.91,7.04,2.93c0.66,0.29,1.12,0.24,1.71-0.2
				c4.32-3.2,8.68-6.35,13.02-9.52c3.54-2.59,7.14-2.31,10.16,0.8c4.04,4.15,8.08,8.31,12.12,12.46c2.74,2.83,2.99,5.91,0.75,9.12
				c-3.21,4.59-6.4,9.2-9.67,13.74c-0.63,0.87-0.63,1.56-0.27,2.46c0.91,2.23,1.8,4.46,2.59,6.73c0.28,0.79,0.68,1.16,1.47,1.3
				c5.15,0.91,10.3,1.85,15.45,2.76c0.85,0.15,1.72,0.21,2.56,0.4c2.47,0.54,4.55,3.06,4.53,5.67c-0.04,6.57-0.13,13.14-0.27,19.71
				c-0.06,2.9-2.7,5.79-5.61,6.25c-5.57,0.87-11.15,1.71-16.73,2.52c-1.03,0.15-1.67,0.49-2.06,1.55c-0.84,2.3-1.82,4.55-2.8,6.79
				c-0.31,0.71-0.25,1.2,0.22,1.83c3.2,4.32,6.35,8.68,9.52,13.03c2.52,3.46,2.24,7.1-0.8,10.06c-4.19,4.07-8.37,8.15-12.56,12.22
				c-2.76,2.68-5.88,2.93-9.01,0.73c-4.59-3.22-9.19-6.41-13.74-9.67c-0.89-0.64-1.61-0.7-2.58-0.29c-2.17,0.92-4.37,1.8-6.6,2.55
				c-0.93,0.31-1.26,0.85-1.41,1.7c-0.99,5.55-1.99,11.1-3,16.65c-0.59,3.28-3.54,5.72-6.87,5.68c-6.25-0.07-12.5-0.16-18.75-0.26
				c-3.43-0.05-5.71-2.33-6.16-5.69c-0.78-5.81-1.76-11.6-2.63-17.4c-0.09-0.57-0.31-0.86-0.83-1.07c-2.52-1.02-5.04-2.06-7.54-3.14
				c-0.71-0.31-1.18-0.04-1.72,0.32c-4.71,3.12-9.42,6.23-14.13,9.34c-3.36,2.22-6.4,1.91-9.2-0.96c-4.14-4.25-8.28-8.5-12.41-12.76
				c-2.55-2.63-2.78-5.81-0.6-8.76c3.38-4.58,6.76-9.17,10.18-13.72c0.51-0.68,0.58-1.17,0.15-1.91c-1.29-2.21-2.23-4.58-2.75-7.08
				c-0.19-0.9-0.59-1.19-1.38-1.32c-5.15-0.91-10.29-1.9-15.45-2.72c-3.42-0.54-5.83-2.14-6.83-5.57c-0.16-0.54-0.16-1.08-0.15-1.62
				c0.08-6.25,0.16-12.5,0.26-18.75c0.05-3.42,2.32-5.67,5.72-6.13c5.72-0.77,11.42-1.72,17.13-2.57c0.7-0.11,1.03-0.35,1.18-1.16
				c0.48-2.47,1.48-4.78,2.87-6.87c0.61-0.92,0.5-1.52-0.11-2.37c-3.21-4.48-6.35-9.01-9.5-13.54c-2.14-3.06-1.96-6.27,0.69-8.9
				c4.56-4.54,9.19-9.01,13.83-13.46c2.19-2.1,5.54-2.23,8.03-0.4c4.63,3.4,9.25,6.8,13.81,10.28c0.87,0.66,1.54,0.65,2.44,0.28
				c2.23-0.9,4.46-1.8,6.73-2.59c0.8-0.28,1.16-0.69,1.3-1.48c0.91-5.15,1.82-10.3,2.78-15.44c0.26-1.41,0.23-2.9,1.04-4.2
				c0.94-1.52,2.46-2.19,3.96-2.91C2723.68,2393.61,2730.98,2393.71,2738.28,2393.81z M2681.52,2475.15
				c-0.36,24.98,19.32,45.23,44.31,45.6c24.97,0.36,45.23-19.33,45.59-44.31s-19.32-45.24-44.31-45.59
				C2702.12,2430.49,2681.88,2450.16,2681.52,2475.15z"/>
		</g>
	</g>
</g>
</svg>
